<?xml version="1.0" standalone="no"?>
<!DOCTYPE svg PUBLIC "-//W3C//DTD SVG 1.1//EN" "http://www.w3.org/Graphics/SVG/1.1/DTD/svg11.dtd" >
<svg xmlns="http://www.w3.org/2000/svg">
<metadata>
Created by FontForge 20120731 at Thu May 18 16:59:21 2017
 By admin
</metadata>
<defs>
<font id="icon" horiz-adv-x="1024" >
  <font-face 
    font-family="icon"
    font-weight="500"
    font-stretch="normal"
    units-per-em="1024"
    panose-1="2 0 6 3 0 0 0 0 0 0"
    ascent="896"
    descent="-128"
    x-height="792"
    bbox="1.92857 -169 1023 896"
    underline-thickness="0"
    underline-position="0"
    unicode-range="U+0078-E91A"
  />
<missing-glyph 
 />
    <glyph glyph-name=".notdef" 
 />
    <glyph glyph-name=".notdef" 
 />
    <glyph glyph-name=".null" horiz-adv-x="0" 
 />
    <glyph glyph-name="nonmarkingreturn" horiz-adv-x="341" 
 />
    <glyph glyph-name="x" unicode="x" horiz-adv-x="1001" 
d="M281 543q-27 -1 -53 -1h-83q-18 0 -36.5 -6t-32.5 -18.5t-23 -32t-9 -45.5v-76h912v41q0 16 -0.5 30t-0.5 18q0 13 -5 29t-17 29.5t-31.5 22.5t-49.5 9h-133v-97h-438v97zM955 310v-52q0 -23 0.5 -52t0.5 -58t-10.5 -47.5t-26 -30t-33 -16t-31.5 -4.5q-14 -1 -29.5 -0.5
t-29.5 0.5h-32l-45 128h-439l-44 -128h-29h-34q-20 0 -45 1q-25 0 -41 9.5t-25.5 23t-13.5 29.5t-4 30v167h911zM163 247q-12 0 -21 -8.5t-9 -21.5t9 -21.5t21 -8.5q13 0 22 8.5t9 21.5t-9 21.5t-22 8.5zM316 123q-8 -26 -14 -48q-5 -19 -10.5 -37t-7.5 -25t-3 -15t1 -14.5
t9.5 -10.5t21.5 -4h37h67h81h80h64h36q23 0 34 12t2 38q-5 13 -9.5 30.5t-9.5 34.5q-5 19 -11 39h-368zM336 498v228q0 11 2.5 23t10 21.5t20.5 15.5t34 6h188q31 0 51.5 -14.5t20.5 -52.5v-227h-327z" />
    <glyph glyph-name="plus" unicode="&#xe607;" horiz-adv-x="1000" 
d="M864 449h-316v316q0 20 -14.5 34.5t-35 14.5t-35 -14.5t-14.5 -34.5v-316h-316q-20 0 -34.5 -14.5t-14.5 -35t14.5 -35t34.5 -14.5h316v-316q0 -20 14.5 -34.5t35 -14.5t35 14.5t14.5 34.5v316h316q20 0 34.5 14.5t14.5 35t-14.5 35t-34.5 14.5z" />
    <glyph glyph-name="cube-little" unicode="&#xe646;" 
d="M384 515h257v-261h-257v261zM661 13z" />
    <glyph glyph-name="more-dot" unicode="&#xe677;" 
d="M184.5 474q-37.5 0 -64 -26.5t-26.5 -64t26.5 -64t64 -26.5t64 26.5t26.5 64t-26.5 64t-64 26.5zM512.5 474q-37.5 0 -64 -26.5t-26.5 -64t26.5 -64t64 -26.5t64 26.5t26.5 64t-26.5 64t-64 26.5zM838.5 474q-37.5 0 -64 -26.5t-26.5 -64t26.5 -64t64 -26.5t64 26.5
t26.5 64t-26.5 64t-64 26.5z" />
    <glyph glyph-name="link" unicode="&#xe73a;" 
d="M725 769q51 0 97.5 -19t83.5 -56t56 -83.5t19 -97.5q0 -50 -19 -97t-56 -84l-128 -128q-3 -3 -11 -10q-35 -32 -79 -48.5t-91 -16.5q-58 0 -110 25q-39 19 -70.5 50.5t-50.5 70.5q25 25 61 25q12 0 25 -4q21 -35 56 -56q41 -25 89 -25q34 0 65 12.5t56 37.5l128 128
q25 24 37.5 55.5t12.5 65t-12.5 64.5t-37.5 56t-56 37.5t-64.5 12.5t-65 -12.5t-55.5 -37.5l-90 -90q-43 12 -88 12q-8 0 -21 -1q7 8 10 11l128 128q37 37 84 56t97 19v0zM427 471q58 0 110 -25q39 -19 70.5 -50.5t50.5 -70.5q-25 -25 -61 -25q-12 0 -25 4q-21 35 -56 56
q-41 25 -89 25q-34 0 -65 -12.5t-56 -37.5l-128 -128q-25 -24 -37.5 -55.5t-12.5 -65t12.5 -64.5t37.5 -56t56 -37.5t64.5 -12.5t65 12.5t55.5 37.5l90 90q43 -12 88 -12q8 0 21 1q-7 -8 -10 -11l-128 -128q-37 -37 -84 -56t-97 -19t-97.5 19t-83.5 56q-37 37 -56 83.5
t-19 97t19 97.5t56 84l128 128q3 3 11 10q35 32 79 48.5t91 16.5v0z" />
    <glyph glyph-name="calendar" unicode="&#xe62f;" 
d="M290 668q19 0 31.5 13t12.5 33v43v0v0v43q0 19 -12 32q-20 21 -48 10.5t-28 -40.5q-1 -19 0 -45v-42q0 -20 12.5 -33.5t31.5 -13.5zM737.5 667q18.5 0 31 13.5t12.5 32.5v43v0v0v43q0 20 -11 32q-21 22 -49 11t-28 -41v-45v-42q0 -20 13 -33.5t31.5 -13.5zM544 339h118
v-87h-118v87zM723 458h117v-87h-117v87zM723 339h117v-87h-117v87zM365 220h118v-88h-118v88zM544 220h117v-87h-117v87zM723 220h117v-87h-117v87zM186 220h118v-88h-118v88zM187 339h117v-88h-117v88zM544 458h117v-87h-117v87zM365 339h118v-87h-118v87zM365 458h118v-87
h-118v87zM942 757h-110v-15q-1 -40 -26 -68t-63 -31h-7t-8 1q-37 3 -62 31.5t-25 67.5v14h-258v-15q0 -42 -27.5 -70.5t-67.5 -28.5t-68 29t-28 71v14h-110q-8 0 -13 -5t-5 -12v-739q0 -7 5 -12t13 -5h860q8 0 13 5t5 12v739q0 7 -5 12t-13 5zM907 42h-787v482h787v-430v0
v-52v0v0z" />
    <glyph glyph-name="zoom-in" unicode="&#xe819;" 
d="M213 623l196 -196l60 60l-196 196l86 86l-312 80l80 -312zM619 427l196 196l86 -86l80 312l-311 -80l85 -86l-196 -196zM815 150l-196 196l-60 -60l196 -196l-85 -86l311 -80l-80 312zM409 346l-196 -196l-86 86l-80 -312l312 80l-86 86l196 196z" />
    <glyph glyph-name="editinfo" unicode="&#xe622;" 
d="M515 748q4 0 10 -2t16 -12t10 -26q0 -4 -1 -10t-10 -16t-25 -10h-317v-607h607l-2 316q0 5 2 11t12 16.5t24 10.5h4.5t9 -2.5t11.5 -6t9 -11.5t4 -18v-340v-5.5t-3 -12t-8 -15.5t-15.5 -12.5t-24.5 -5.5h-657q-2 0 -5 0.5t-11.5 4t-14.5 8.5t-11.5 15t-6.5 23v657
q0 2 0.5 5t3.5 11t8 14.5t15.5 12.5t24.5 7h341zM921 681l-109 109q-3 2 -7 4.5t-15 2.5t-20 -9l-421 -419v-149h152l420 418q1 0 5 6t5 15.5t-10 21.5zM477 294h-53v50l365 365l53 -48z" />
    <glyph glyph-name="close" unicode="&#xe653;" 
d="M557 384l230 230q10 10 10 23t-9.5 22.5t-22.5 9.5t-23 -10l-230 -230l-230 230q-10 10 -23 10t-22.5 -9.5t-9.5 -22.5t10 -23l230 -230l-230 -230q-10 -10 -10 -23t10 -22q6 -7 25.5 -7t25.5 7l224 230l230 -230q7 -7 26 -7t26 7q9 9 9 22t-9 23z" />
    <glyph glyph-name="add" unicode="&#xe618;" horiz-adv-x="1044" 
d="M845 66q-65 -64 -149 -98t-175.5 -34t-175.5 34t-149 98t-99.5 146t-34.5 172t34.5 172t99.5 146t149 98t175.5 34t175.5 -34t149 -98q88 -86 119 -202t0 -232t-119 -202v0zM797 652q-55 55 -126.5 84.5t-149.5 29.5t-149.5 -29.5t-127 -84.5t-85 -126.5t-29.5 -150
t29.5 -149.5t85 -126.5t126.5 -85t149.5 -29.5t150 29.5t126.5 85.5q75 75 101.5 175.5t0 201t-101.5 175.5zM733 342h-178v-179q0 -10 -7.5 -17.5t-18.5 -7.5h-17q-10 0 -17.5 7.5t-7.5 17.5v179h-179q-10 0 -17.5 7t-7.5 18v17q0 11 7.5 18t17.5 7h179v179q0 10 7.5 17.5
t17.5 7.5h17q11 0 18.5 -7.5t7.5 -17.5v-179h178q10 0 17.5 -7t7.5 -18v-17q0 -11 -7.5 -18t-17.5 -7z" />
    <glyph glyph-name="setting" unicode="&#xe613;" 
d="M512 574q-74 0 -126 -52t-52 -125.5t52 -126t126 -52.5t126 52.5t52 126t-52 125.5t-126 52zM512 248q-61 0 -104.5 43.5t-43.5 105t43.5 104.5t104.5 43t104.5 -43t43.5 -104.5t-43.5 -105t-104.5 -43.5zM957 333v127l-145 41q-6 17 -14 33l74 132l-90 90l-132 -74
q-17 8 -33 14l-41 145h-128l-41 -145q-16 -6 -33 -14l-132 74l-90 -90l74 -132q-8 -16 -14 -33l-145 -41v-127l145 -42q6 -16 14 -33l-74 -132l90 -89l132 73q17 -8 33 -14l41 -145h128l41 145q16 6 33 14l132 -73l90 89l-74 132q8 17 14 33zM784 301q-5 -15 -12 -30
q-3 -6 -3 -13t3 -14q47 -84 63 -112l-58 -59l-113 63q-7 4 -14 4t-13 -3q-15 -7 -30 -13q-14 -5 -18 -19l-36 -124h-82q-4 14 -13 45t-16 55l-7 24q-4 14 -18 19q-15 6 -30 13q-6 3 -13 3t-14 -4q-84 -47 -113 -63q-8 9 -28.5 29.5l-29.5 29.5l63 112q3 7 3 14t-3 13
q-7 15 -12 30q-5 14 -20 19q-92 26 -123 35v82q5 2 12.5 4t15.5 4.5t17.5 5t18.5 5l18 5t16.5 5t13 4t8.5 2.5l3 1q15 4 20 18q5 15 12 30q3 6 3 13t-3 14q-47 84 -63 113l58 58l113 -63q7 -3 14 -3t13 3q15 7 30 12q14 5 18 20q27 92 36 123h82l36 -123q4 -15 18.5 -20
t29.5 -12q6 -3 13 -3t14 3q84 47 113 63l58 -58l-63 -113q-3 -7 -3 -14t3 -13q7 -15 12 -30q5 -14 20 -18q92 -27 123 -36v-82l-123 -35q-15 -5 -20 -19z" />
    <glyph glyph-name="user" unicode="&#xe679;" 
d="M250 -52h-1v0v0h1zM958 -25q4 -7 4 -13q0 -12 -8.5 -20t-20.5 -8t-20 8t-8 20h-1q-30 134 -139.5 222t-252.5 88t-252.5 -88t-139.5 -222h-1q0 -12 -8 -20t-20 -8t-20.5 8t-8.5 20q0 6 4 13q26 118 109 207t200 125q-68 37 -109 102.5t-41 143.5q0 116 84 198.5t203 82.5
t203 -82.5t84 -198.5q0 -78 -41 -143.5t-109 -102.5q117 -36 200 -125t109 -207v0zM741 553q0 93 -67 159t-162 66t-162 -66t-67 -159t67 -159t162 -66t162 66t67 159v0z" />
    <glyph glyph-name="delete" unicode="&#xe609;" 
d="M608 128q-13 0 -22.5 9.5t-9.5 22.5v352q0 13 9.5 22.5t22.5 9.5t22.5 -9.5t9.5 -22.5v-352q0 -13 -9.5 -22.5t-22.5 -9.5zM416 128q-13 0 -22.5 9.5t-9.5 22.5v352q0 13 9.5 22.5t22.5 9.5t22.5 -9.5t9.5 -22.5v-352q0 -13 -9.5 -22.5t-22.5 -9.5zM928 672h-160v64
q0 40 -28 68t-67 28h-321q-40 0 -68 -28t-28 -68v-64h-160q-13 0 -22.5 -9.5t-9.5 -22.5t9.5 -22.5t22.5 -9.5h832q13 0 22.5 9.5t9.5 22.5t-9.5 22.5t-22.5 9.5zM320 736q0 13 9.5 22.5t22.5 9.5h321q13 0 22 -9.5t9 -22.5v-64h-384v64zM736 -64h-448q-40 0 -68 28t-28 68
v480q0 14 9.5 23t22.5 9t22.5 -9t9.5 -23v-480q0 -13 9.5 -22.5t22.5 -9.5h448q13 0 22.5 9.5t9.5 22.5v479q0 13 9.5 22.5t22.5 9.5t22.5 -9.5t9.5 -22.5v-479q0 -40 -28 -68t-68 -28z" />
    <glyph glyph-name="search" unicode="&#xe60a;" 
d="M983 -54l-33 -33l-201 200q-77 -69 -177 -91.5t-198.5 5.5t-172.5 102q-77 77 -104.5 180t0 206t104.5 180t180 104.5t206 0t180 -104.5q74 -74 102 -172.5t5.5 -198.5t-91.5 -177l200 -201v0zM733.5 662q-67.5 68 -158.5 92t-182 0t-159 -92t-92 -159t0 -182t92 -158.5
t159 -92t182 0t158.5 92t92 158.5t0 182t-92 159z" />
    <glyph glyph-name="save" unicode="&#xe610;" 
d="M820 -72h-616q-63 0 -108 45t-45 108v606q0 63 45 108t108 45h616q63 0 108 -45t45 -108v-606q0 -63 -45 -108t-108 -45v0zM204 780q-38 0 -65.5 -27t-27.5 -66v-606q0 -39 27.5 -66t65.5 -27h616q38 0 65.5 27t27.5 66v606q0 39 -27.5 66t-65.5 27h-616zM807 383h-590
v457h590v-457v0zM277 442h470v338h-470v-338zM600 693h60v-199h-60v199zM600 693z" />
    <glyph glyph-name="logout" unicode="&#xe77e;" 
d="M842.5 165q-11.5 9 -26 7t-23.5 -13q-52 -67 -127 -104q-77 -39 -164 -39q-75 0 -144 29q-66 28 -117 79t-79 117q-29 68 -29 143t29 143q28 66 79 117t117 79q69 29 144 29q87 0 164 -39q75 -37 127 -104q9 -11 23.5 -13t26 7t13 23.5t-7.5 25.5q-61 79 -150 124
q-92 46 -196 46q-90 0 -171 -34q-79 -33 -139.5 -94t-93.5 -139q-35 -82 -35 -171t35 -171q33 -78 93.5 -139t139.5 -94q81 -34 171 -34q104 0 196 46q89 44 150 124q9 11 7.5 25.5t-13 23.5zM953 390l-154 131q-8 6 -13 3.5t-5 -11.5v-103h-206q-15 0 -25 -10t-10 -25
t10 -25t25 -10h206v-103q0 -10 5 -12t13 4l154 131q8 6 8 15t-8 15z" />
    <glyph glyph-name="user-around" unicode="&#xe636;" 
d="M512 -51q-180 0 -307.5 127.5t-127.5 307.5t127.5 307.5t307.5 127.5q88 0 169 -36.5t139 -97t92.5 -142t34.5 -168.5q0 -86 -36 -165t-95 -136t-139 -90.5t-165 -33.5v-1zM731 100q-28 64 -87 104t-132 40t-132 -40t-87 -104q97 -76 219 -76t219 76v0zM632 424
q0 50 -35 85t-85 35t-85 -35t-35 -85t35 -85t85 -35t85 35t35 85v0zM512 744q-98 0 -180.5 -48.5t-131 -131t-48.5 -180.5q0 -74 29 -140.5t80 -116.5q28 56 77.5 96t110.5 54q-43 18 -70 58t-27 89q0 66 47 113t113 47t113 -47t47 -113q0 -49 -27 -89t-70 -58
q61 -14 110.5 -54t77.5 -96q51 50 80 116.5t29 140.5q0 98 -48.5 180.5t-131 131t-180.5 48.5v0z" />
    <glyph glyph-name="copy" unicode="&#xe69e;" 
d="M123 773h613v-72h61v133h-735v-711h107v61h-46v589zM227 645v-711h735v711h-735zM901 -5h-613v589h613v-589z" />
    <glyph glyph-name="cancel-admin" unicode="&#xe644;" 
d="M640 371q64 84 64 205q0 132 -84 226t-204 94t-204 -94t-84 -226q0 -109 64 -205q-58 -19 -93 -68t-35 -111v-128q0 -79 56.5 -135.5t135.5 -56.5h320h16l13 74q-29 -10 -58 -10h-262q-65 0 -111 42t-46 102v96q0 50 34 89.5t88 51.5q71 -61 166 -61t166 61q37 -7 66 -30
t43 -57l39 77q-39 50 -90 64zM416 320q-93 0 -158.5 75t-65.5 181t65.5 181t158.5 75t158.5 -75t65.5 -181t-65.5 -181t-158.5 -75zM778 -32l-112 -61l19 128l-90 90l125 16l58 115l57 -115l125 -16l-93 -90l23 -128z" />
    <glyph glyph-name="file" unicode="&#xe626;" 
d="M904 578v-544q0 -48 -34.5 -82.5t-83.5 -34.5h-548q-49 0 -83.5 34.5t-34.5 82.5v700q0 48 34.5 82.5t83.5 34.5h392zM630 578h163l-163 163v-163zM825 34v467h-274v272h-313q-17 0 -28 -11.5t-11 -27.5v-700q0 -16 11 -27.5t28 -11.5h548q17 0 28 11.5t11 27.5z" />
    <glyph glyph-name="triangle-right" unicode="&#xe602;" 
d="M301 751l456 -379l-456 -379v758z" />
    <glyph glyph-name="password" unicode="&#xe62c;" 
d="M749 513h-453v85q0 81 60.5 137t148.5 56q86 0 143.5 -55.5t57.5 -137.5v-43q0 -8 6.5 -14.5t15.5 -6.5t15 6.5t6 14.5v43q0 100 -69 167.5t-173 68.5h-3q-106 -1 -178.5 -69t-72.5 -167v-88q-55 -8 -92.5 -49.5t-37.5 -97.5v-279q0 -62 44.5 -106t106.5 -44h475
q63 0 107.5 44t44.5 106v279q0 62 -44.5 106t-107.5 44v0zM857 84q0 -44 -31.5 -75.5t-76.5 -31.5h-474q-45 0 -76.5 31.5t-31.5 75.5v279q0 44 31.5 75.5t76.5 31.5h474q45 0 76.5 -31.5t31.5 -75.5v-279v0zM512 384q-54 0 -92 -37.5t-38 -91.5q0 -47 31 -82.5t78 -43.5
l-0.5 -1l-0.5 -1v-64q0 -9 6.5 -15.5t15.5 -6.5t15.5 6.5t6.5 15.5v64l-0.5 1l-0.5 1q47 8 78 43.5t31 82.5q0 54 -38 91.5t-92 37.5v0zM512 170q-36 0 -61 25t-25 60.5t25 60.5t61 25t61 -25t25 -60.5t-25 -60.5t-61 -25v0z" />
    <glyph glyph-name="point-right" unicode="&#xe63f;" 
d="M940 401l-201 201q-11 12 -23 0l-23 -23q-11 -11 0 -22l142 -142h-739q-6 0 -11 -4.5t-5 -11.5v-32q0 -6 5 -11t11 -5h739l-141 -141q-11 -11 0 -23l23 -22q11 -12 22 0l200 200q7 7 3 17q7 11 -2 19z" />
    <glyph glyph-name="admin" unicode="&#xe6ed;" 
d="M582 -98l17 100l-72 70q-40 39 -24 88q7 23 26 38t45 18l87 13q-6 4 -10 8q-16 14 -24 30q-7 16 -8 32t2 31q2 11 6 21q4 8 10 14q8 7 15 12q8 6 17 14q8 6 15 19q7 14 11 26q6 16 9 32q11 3 20 11q8 7 14 20q7 14 10 34q2 16 0 27q-3 10 -7 19q-4 8 -11 12q1 42 -5 81
q-5 34 -18 74q-13 39 -38 72q-12 14 -30 28q-16 12 -41 25q-23 10 -51 18q-27 7 -56 7q-22 0 -49 -4q-26 -5 -49 -15q-24 -10 -48 -28q-24 -17 -44 -45q-20 -29 -31 -66q-10 -37 -14 -69q-5 -37 -4 -78q-9 -11 -13 -21t-5 -24q-2 -14 3 -31q5 -18 12 -27q8 -9 14 -14t14 -7
q6 -18 10 -31q6 -15 11 -26q7 -13 15 -20q15 -13 31 -28q13 -13 15 -37q1 -18 1 -29q0 -13 -4 -25q-5 -12 -17 -25t-33 -25q-26 -18 -61 -27q-21 -5 -148 -49q-33 -11 -57 -30q-25 -19 -31 -57q-5 -35 -6 -45t2 -33q5 -42 16 -50q10 -7 53 -17q26 -6 76 -14t152.5 -17.5
t198.5 -9.5q42 0 80 2q-1 14 1 28zM1004 148l-106 15q-12 2 -25 11t-18 20l-48 97q-5 11 -13 11t-13 -11l-48 -97q-5 -11 -18 -20t-25 -11l-106 -15q-13 -2 -15 -9.5t6 -16.5l77 -75q9 -8 14 -23t3 -27l-18 -106q-3 -19 10 -19q5 0 11 3l95 50q12 6 27 6t26 -6l95 -50
q6 -3 11 -3q14 0 11 19l-18 106q-2 12 2.5 27t13.5 23l77 75q9 9 7 16.5t-15 9.5z" />
    <glyph glyph-name="validate" unicode="&#xe611;" 
d="M936 180l-23 39q-3 -1 -8.5 -2t-20 -1t-26.5 4.5t-23.5 17.5t-15.5 35h-46q0 -2 -1 -4.5t-3.5 -10.5t-7 -13.5t-11.5 -13.5t-17 -11t-23.5 -5t-30.5 4l-25 -40v-1q3 -1 7 -4.5t11.5 -14.5t10 -22.5t-4 -29t-24.5 -33.5l25 -41q3 1 8 2.5t18 2.5t24.5 -3t24 -17.5
t18.5 -37.5h47q0 2 1 4.5t4 10.5t7 13.5t11.5 13.5t17 11t23 5t30.5 -4q22 38 23 39v0q-3 2 -6.5 6t-10.5 15.5t-9.5 23.5t3.5 29t23 33zM795 73q-22 0 -38 15.5t-16 38t16 38t38 15.5t38 -15.5t16 -38t-16 -38t-38 -15.5zM925 557q-34 80 -95.5 141.5t-141.5 95.5
q-83 35 -174 35t-174 -35q-80 -34 -141.5 -95.5t-95.5 -141.5q-35 -83 -35 -174t35 -173q34 -81 95.5 -142.5t141.5 -95.5q83 -35 174 -35q87 0 168 33q-21 18 -36 41q-64 -23 -132 -23q-107 0 -198 53t-144 144t-53 198t53 198t144 144t198 53q77 0 147 -28.5t124 -79.5
q-51 -26 -100.5 -73.5t-83.5 -95.5t-61 -94.5t-40 -74t-13 -28.5l-72 135l-147 -87q47 -17 109.5 -66.5t118.5 -117.5q46 83 145 190.5t154 119.5q-11 25 -15 52t-3 44t4.5 49.5t4.5 45.5q58 -55 90.5 -129t32.5 -157q0 -50 -12 -99q24 -13 43 -32q20 63 20 131
q0 91 -35 174z" />
    <glyph glyph-name="edit" unicode="&#xe633;" 
d="M99 -66q10 0 21 5l206 92q32 14 56 38l563 564q17 16 17 40t-17 41l-103 103q-17 17 -41 17t-40 -17l-578 -578q-24 -24 -38 -56l-79 -192q-10 -24 2 -41q11 -16 31 -16v0zM341 109v0l-103 104l477 477l103 -103zM801 777l103 -104l-45 -45l-103 103zM198 161q1 2 4 6
l89 -89l-155 -69z" />
    <glyph glyph-name="point" unicode="&#xe60c;" 
d="M804 490h-2q-23 0 -44 -13q-9 26 -30 42t-49 16q-25 0 -46 -13q-9 26 -30 42t-49 16q-21 0 -41 -10v86q0 36 -24 61t-59 25q-36 0 -61 -25t-25 -61v-332l-53 52q-26 24 -62.5 23t-59.5 -23q-15 -15 -23.5 -36.5t-5 -46.5t22.5 -45l241 -239q7 -7 16 -13q36 -29 80.5 -43
t120.5 -14q51 0 91 8.5t68 21.5t47.5 35t31 45t18 55t8.5 61t2 68v171q0 36 -24 61t-59 25v0zM841 233q0 -39 -0.5 -58t-4.5 -50.5t-12 -47.5t-24 -37t-39.5 -31t-58.5 -17t-81 -7q-69 0 -114 15t-77 47l-229 227q-14 16 -12.5 32.5t14.5 30.5q12 12 31.5 12.5t31.5 -11.5
l74 -74l49 -49v432q0 17 12 29t29 12t27.5 -12t10.5 -29v-275h1q-1 -2 -1 -4q0 -10 6.5 -16.5t16 -6.5t16.5 6.5t7 16.5q0 2 -1 4h1v113q0 17 11 29t27 12q2 0 4.5 -0.5t9.5 -2.5t12.5 -6t9.5 -12t4 -20v-149h1q-1 -2 -1 -4q0 -10 7 -16.5t16.5 -6.5t16 6.5t6.5 16.5
q0 2 -1 4h1v104q0 17 11 29t28 12q1 -1 4 -1t10 -2.5t12.5 -6.5t9.5 -12t4 -19v-131h1q-1 -2 -1 -4q0 -10 7 -16.5t16 -6.5t15.5 6.5t6.5 16.5v4v0v89q0 17 11.5 29t28.5 12h4t9.5 -2t12 -6t9.5 -12.5t4 -20.5v-165v0zM310 529v75q-11 26 -11 53q0 54 38 92t92 38t92 -38
t38 -92q0 -14 -3 -28q24 -1 41 -19q7 24 7 47q0 73 -51.5 124t-124 51t-123.5 -51t-51 -124q-1 -76 56 -128v0zM310 529z" />
    <glyph glyph-name="excel" unicode="&#xe615;" 
d="M747 747h-564q-12 0 -20 -8.5t-8 -19.5v-743q0 -11 8 -19.5t20 -8.5h399v166q0 11 8 19t19 8h166v578q0 11 -8.5 19.5t-19.5 8.5v0zM633 505q-12 0 -20.5 -3t-19.5 -11q-6 -5 -34 -32l-68 -68l61 -121q15 -30 22.5 -36.5t18.5 -7.5l-1 -8h-144l1 8q18 1 23.5 5t6.5 10
q1 4 0 7q-2 6 -11 24l-32 64l-55 -55q-25 -25 -26 -34q-1 -7 3 -12.5t14 -7.5q4 -1 19 -1l-2 -8h-113l1 8q20 3 32 10q17 10 49 42l71 72l-56 110q-14 27 -16 30q-4 8 -9.5 11t-14.5 4l1 8h147l-2 -8h-7q-13 0 -18.5 -4t-6.5 -10q-1 -5 0 -8l11 -23l27 -56l37 38
q29 30 31 41q2 6 -0.5 11t-8.5 8t-19 3l1 8h109zM633 505zM615 82v-138l166 165h-138q-11 0 -19.5 -8t-8.5 -19v0v0zM615 82zM836 825h-575q-17 0 -29 -12.5t-12 -29.5h574q12 0 20 -8t8 -19v-574q17 0 29 12t12 29v0v574q0 12 -8 20t-19 8v0v0zM836 825z" />
    <glyph glyph-name="check" unicode="&#xe604;" 
d="M384 205l-179 179l-60 -60l239 -239l512 512l-60 60z" />
    <glyph glyph-name="folder-opened" unicode="&#xe8ea;" 
d="M974.5 574.5q-13.5 17.5 -35.5 17.5h-92v40q0 20 -14 33.5t-33 13.5h-433q-4 0 -6 3l-59 58q-13 14 -33 14h-182q-19 0 -33 -14t-14 -33v-646q0 -19 14 -33t33 -14v0h6h715q15 0 27 9t16 24l131 489q6 21 -7.5 38.5zM87 715h182q3 0 6 -2l58 -59q14 -14 34 -14h433
q8 0 8 -8v-40h-584q-15 0 -27.5 -9t-16.5 -24l-101 -378v526q0 8 8 8zM945 546l-131 -489q-1 -4 -6 -4h-715q-3 0 -5 2.5t-1 4.5l131 489q1 4 6 4h715q3 0 4.5 -2t1.5 -5z" />
    <glyph glyph-name="refresh" unicode="&#xe6a7;" 
d="M208 395q15 96 52 162t83.5 94.5t99.5 40t103 3t91 -21.5t65.5 -27.5t24.5 -20.5l-72 -90h269v265q-68 -61 -108 -89q-6 33 -77 69q-114 57 -250 50q-212 -13 -329 -190q-66 -100 -95 -248q22 3 41 4t53.5 0t48.5 -1v0zM816 378q-15 -97 -52 -163.5t-83.5 -95t-99.5 -40
t-103 -3.5t-90.5 21.5t-65.5 28.5t-25 22q13 18 31 40.5t29 35.5l12 14h-269v-265q68 61 108 89q6 -33 77 -69q115 -57 250 -50q212 13 329 190q66 100 96 248q-23 -3 -41.5 -4t-53.5 0t-49 1v0zM816 378z" />
    <glyph glyph-name="config" unicode="&#xe6bc;" 
d="M805 351h-71q-10 -28 -35 -46.5t-56.5 -18.5t-56.5 18.5t-35 46.5h-332q-14 0 -23.5 9.5t-9.5 23t9.5 23.5t23.5 10h332q10 28 35 46.5t56.5 18.5t56.5 -18.5t35 -46.5h71q14 0 23.5 -10t9.5 -23.5t-9.5 -23t-23.5 -9.5zM642.5 417q-13.5 0 -23 -10t-9.5 -23.5t9.5 -23
t23 -9.5t23 9.5t9.5 23t-9.5 23.5t-23 10zM805 580h-332q-10 -29 -35 -47.5t-56.5 -18.5t-56.5 18.5t-35 47.5h-71q-14 0 -23.5 9.5t-9.5 23t9.5 23t23.5 9.5h71q10 29 35 47t56.5 18t56.5 -18t35 -47h332q14 0 23.5 -9.5t9.5 -23t-9.5 -23t-23.5 -9.5zM381.5 645
q-13.5 0 -23 -9.5t-9.5 -23t9.5 -23t23 -9.5t23 9.5t9.5 23t-9.5 23t-23 9.5zM219 188h71q10 29 35 47.5t56.5 18.5t56.5 -18.5t35 -47.5h332q14 0 23.5 -9.5t9.5 -23t-9.5 -23t-23.5 -9.5h-332q-10 -29 -35 -47t-56.5 -18t-56.5 18t-35 47h-71q-14 0 -23.5 9.5t-9.5 23
t9.5 23t23.5 9.5zM381.5 123q13.5 0 23 9.5t9.5 23t-9.5 23t-23 9.5t-23 -9.5t-9.5 -23t9.5 -23t23 -9.5z" />
    <glyph glyph-name="database" unicode="&#xe68f;" 
d="M512 453q127 0 237.5 23t173.5 68v-91q0 -37 -55 -69t-150 -50.5t-206 -18.5t-206 18.5t-150 50.5t-55 69v91q63 -45 173.5 -68t237.5 -23zM512 41q127 0 237.5 23t173.5 68v-91q0 -37 -55 -68.5t-150 -50t-206 -18.5t-206 18.5t-150 50t-55 68.5v91q63 -45 173.5 -68
t237.5 -23zM512 247q127 0 237.5 23t173.5 68v-91q0 -37 -55 -68.5t-150 -50t-206 -18.5t-206 18.5t-150 50t-55 68.5v91q63 -45 173.5 -68t237.5 -23zM512 864q111 0 206 -18.5t150 -50t55 -68.5v-69q0 -37 -55 -68.5t-150 -50t-206 -18.5t-206 18.5t-150 50t-55 68.5v69
q0 37 55 68.5t150 50t206 18.5zM512 864z" />
    <glyph glyph-name="menu-authority" unicode="&#xe63d;" 
d="M768 528l-310 -310v0q-13 -14 -31 -15t-27 10l-5 5v0v0l-135 134q-14 14 -14 32t14 32q13 13 31 13.5t27 -9.5l104 -104l279 280q13 13 31 13t32 -13q17 -14 17.5 -34.5t-13.5 -33.5zM872 744v-720h-720v720h720zM872 834h-720q-37 0 -63.5 -26.5t-26.5 -63.5v-720
q0 -37 26.5 -63.5t63.5 -26.5h720q37 0 63.5 26.5t26.5 63.5v720q0 37 -26.5 63.5t-63.5 26.5v0z" />
    <glyph glyph-name="stacks" unicode="&#xe689;" 
d="M973 312l-415 -204q-31 -16 -48 -16t-44 16l-415 204q-25 20 -25 87q59 -35 61 -35l425 -216l425 216q41 20 67 35q0 -23 -8.5 -51.5t-22.5 -35.5zM973 532l-415 -204q-31 -16 -48 -16t-44 16l-415 204q-23 16 -23 50t23 53l415 241q27 15 48 15t44 -15l415 -246
q23 -12 23 -49t-23 -49zM512 835l-425 -256l425 -195l425 195zM512 835zM512 -67l425 215q41 21 67 36q0 -26 -6 -53t-20 -34l-415 -205q-31 -15 -48 -15t-44 15l-415 205q-25 19 -25 87l66 -36l415 -215v0z" />
    <glyph glyph-name="fold" unicode="&#xe601;" 
d="M807 337h-590q-18 0 -30.5 14t-12.5 33t12.5 33t30.5 14h590q18 0 30.5 -14t12.5 -33t-12.5 -33t-30.5 -14zM807 571h-590q-18 0 -30.5 14t-12.5 33.5t12.5 33t30.5 13.5h590q18 0 30.5 -13.5t12.5 -33t-12.5 -33.5t-30.5 -14zM217 196h590q18 0 30.5 -13.5t12.5 -33
t-12.5 -33t-30.5 -13.5h-590q-18 0 -30.5 13.5t-12.5 33t12.5 33t30.5 13.5z" />
    <glyph glyph-name="action" unicode="&#xe60f;" 
d="M959 341q0 30 -21 50.5t-50.5 20.5t-50 -20.5t-20.5 -50.5q0 -21 12 -39t31 -26q-20 -107 -98 -185q-103 -104 -250 -104q-97 0 -180.5 49.5t-130.5 135.5q-4 7 -12.5 9.5t-16.5 -1.5t-10.5 -12.5t1.5 -16.5q53 -96 146.5 -151.5t202.5 -55.5q81 0 155 31q71 30 126 85
t85 127q18 41 25 85q24 5 40 24.5t16 44.5zM207 341q0 22 -12 40t-31 26q20 107 98 185q103 103 250 103q97 0 180.5 -49.5t130.5 -134.5q4 -8 12.5 -10.5t16.5 2t10.5 13t-1.5 16.5q-53 95 -146.5 151t-202.5 56q-81 0 -155 -32q-71 -30 -126 -85t-85 -126q-18 -41 -25 -85
q-24 -6 -40 -25.5t-16 -44.5q0 -29 21 -50t50.5 -21t50 21t20.5 50z" />
    <glyph glyph-name="zoom-out" unicode="&#xe91a;" 
d="M381 464q22 -1 37 14q14 14 14 34v0v224q0 20 -14 34t-34 14t-34 -14t-14 -34v-108l-190 190q-14 14 -34 14t-34 -14t-14 -34t14 -34l190 -190h-108q-20 0 -34 -14t-14 -34t14 -34t34 -14h221zM755 209h109q20 0 34 14t14 34t-14 34t-34 14h-224q-20 0 -34 -14t-14 -34
v-224q0 -20 14 -34t34 -14t34 14t14 34v108l190 -191q14 -14 34 -14t34 14t14 34t-14 34zM643 464q-22 -1 -37 14q-14 14 -14 34v0v224q0 20 14 34t34 14t34 -14t14 -34v-108l190 190q14 14 34 14t34 -14t14 -34t-14 -34l-190 -190h108q20 0 34 -14t14 -34t-14 -34t-34 -14
h-221zM269 209h-109q-20 0 -34 14t-14 34t14 34t34 14h224q20 0 34 -14t14 -34v-224q0 -20 -14 -34t-34 -14t-34 14t-14 34v108l-190 -191q-14 -14 -34 -14t-34 14t-14 34t14 34z" />
    <glyph glyph-name="data-authority" unicode="&#xe639;" 
d="M531 439h-234q-11 0 -19 -8t-8 -19.5t8 -19.5t19 -8h195q17 35 39 55zM839 819h-650q-44 0 -78 -34.5t-34 -78.5v-646q0 -44 33.5 -77.5t78.5 -33.5h360q22 0 31 13.5t0 27.5t-31 14h-360q-23 0 -39.5 17t-16.5 39v646q0 23 17 42.5t39 19.5h650q21 0 37 -17.5t16 -41.5
v0v-210q0 -17 13.5 -24t27.5 0t14 24v211q0 45 -32 77t-76 32zM270 249.5q0 -11.5 8 -19.5t19 -8h155q0 21 5 55h-160q-11 0 -19 -8t-8 -19.5zM757 576q0 11 -7.5 18.5t-19.5 7.5h-433q-11 0 -19 -7.5t-8 -18.5t8 -18t19 -7h433q12 0 19.5 7t7.5 18zM762 431
q-58 -43 -132 -43q-26 0 -53 9v-207q0 -28 20 -68t58 -82q34 -38 72 -67q14 -10 27 -18q3 -1 6 -1t5 1q13 8 27 19q40 30 74 67q40 44 61 83q20 39 20 66v207q-28 -9 -53 -9q-73 0 -132 43zM780 173v-90q0 -8 -5 -14t-13 -6t-13.5 6t-5.5 14v90q-31 7 -48.5 30t-17.5 54
q0 36 25 61t60.5 25t60.5 -25t25 -61q0 -30 -19.5 -53.5t-48.5 -30.5z" />
    <glyph glyph-name="arrowtail-left" unicode="&#xe78e;" 
d="M14 362l352 -353q12 -12 29.5 -12t30.5 12q11 12 12 28t-9 29l-286 287h837q17 0 29.5 12.5t12.5 30t-12.5 30t-29.5 12.5h-837l293 294q15 29 -7 51q-12 12 -30 12q-19 0 -34 -14l-23 -24l-65 -64l-12 -12l-251 -253q-13 -12 -12 -32v-1v0q-1 -20 12 -33v0z" />
    <glyph glyph-name="move-right" unicode="&#xe693;" 
d="M250 791q0 -40 28.5 -68.5t68.5 -28.5t68.5 28.5t28.5 68.5t-28.5 68.5t-68.5 28.5t-68.5 -28.5t-28.5 -68.5zM455 587v0q0 -41 28 -69t68.5 -28t69 28t28.5 69v0q0 40 -28.5 68.5t-69 28.5t-68.5 -28.5t-28 -68.5zM665 378q0 -40 28.5 -68.5t68.5 -28.5t68.5 28.5
t28.5 68.5t-28.5 68.5t-68.5 28.5t-68.5 -28.5t-28.5 -68.5zM449 168v0q0 -40 28.5 -68.5t68.5 -28.5t68.5 28.5t28.5 68.5v0q0 40 -28.5 68.5t-68.5 28.5t-68.5 -28.5t-28.5 -68.5zM239 -23q0 -40 28.5 -68.5t68.5 -28.5t68.5 28.5t28.5 68.5t-28.5 68.5t-68.5 28.5
t-68.5 -28.5t-28.5 -68.5z" />
    <glyph glyph-name="arrow-back" unicode="&#xe603;" horiz-adv-x="1000" 
d="M404 776l-355 -355q-21 -21 -21 -50.5t21 -50.5l355 -355q21 -21 50.5 -21t50.5 20.5t21 50t-21 50.5l-234 234h681q30 0 50.5 21t20.5 50.5t-20.5 50t-50.5 20.5h-681l234 235q21 20 21 49.5t-21 50.5t-50.5 21t-50.5 -21z" />
    <glyph glyph-name="add-folder" unicode="&#xe600;" 
d="M21 27v717q0 31 22 53t53 22h316q31 0 53.5 -22t22.5 -53v-43h-21q-9 0 -15 -6t-6 -12v59v0v0q0 15 -10 25.5t-24 10.5h-316q-14 0 -24 -10t-10 -24v-489l-41 -228v0zM901 543v82q0 14 -10.5 24t-24.5 10h-399q-8 0 -14.5 7t-6.5 15.5t7 14t14 5.5h400q31 0 53 -22
t22 -54v-82h-41zM860 -53h-766q-35 0 -57.5 19t-15.5 61q8 50 28 160.5t35.5 196l15.5 85.5q1 31 22.5 52t50.5 21h767q30 0 52 -22t22 -53q0 -3 -1 -4l-79 -442q-1 -31 -22.5 -52.5t-51.5 -21.5zM62 22q1 -14 10 -23.5t22 -9.5h766q23 0 33 34v4l79 442q0 13 -9.5 23
t-22.5 10h-767q-13 0 -22.5 -10.5t-9.5 -24.5v-4l-79 -441v0zM689 261h-150v149q0 8 -5.5 14t-13.5 6t-14 -6t-6 -14v-149h-149q-8 0 -14 -6t-6 -14t6 -14t14 -6h149v-149q0 -8 6 -14t14 -6t13.5 6t5.5 14v149h150q8 0 13.5 6t5.5 14t-5.5 14t-13.5 6z" />
    <glyph glyph-name="folder" unicode="&#xe60e;" 
d="M930 -4h-836q-25 0 -42.5 17.5t-17.5 42.5v656q0 25 17.5 42.5t42.5 17.5h247q21 0 37 -13l132 -106h420q25 0 42.5 -17.5t17.5 -42.5v-537q0 -25 -17.5 -42.5t-42.5 -17.5v0zM930 56zM341 712h-247v-656h836v537h-420q-21 0 -38 13z" />
    <glyph glyph-name="user-role" unicode="&#xe62b;" 
d="M731 245q-37 0 -64.5 -26.5t-27.5 -65.5q0 -37 27 -64t65 -27t65 26.5t27 64.5q-1 38 -28 65t-64 27zM731 108q-18 0 -31.5 13.5t-13.5 32t13.5 32t32 13.5t31.5 -13.5t13 -32.5q-1 -18 -14 -31.5t-31 -13.5zM973 202q-3 13 -11 21t-19 8h-2q-21 0 -36 15.5t-15 36.5
q0 11 5 20q6 12 1.5 25t-15.5 22l-61 34q-9 3 -16 3q-17 0 -29 -13q-7 -8 -20 -16t-22 -8q-17 0 -42 24q-13 13 -30 13q-6 0 -15 -3h-2l-62 -34l-2 -2q-10 -7 -14 -20t2 -25q0 -1 1 -4t2 -7.5t1 -8.5q0 -21 -15 -36.5t-36 -15.5h-3q-11 0 -19 -8t-11 -21q0 -1 -1 -9
t-2 -19.5t-1 -20t1 -20t2 -19.5t1 -9q3 -14 11 -21.5t19 -7.5h2q21 0 36 -15.5t15 -36.5q0 -11 -5 -20q-6 -12 -1.5 -25.5t15.5 -21.5l59 -32q10 -4 16 -4q17 0 30 13q24 25 42 25q9 0 21.5 -9t20.5 -18q12 -12 29 -12q5 0 17 3l61 33l2 1q10 7 14 20.5t-2 24.5q0 1 -1 4
t-2.5 8t-1.5 9q0 21 15.5 36t36.5 15h3q10 0 18.5 8.5t10.5 21.5q5 26 5 48q1 13 1 22t-1 18.5zM918 122q-35 -4 -58 -30.5t-23 -62.5q0 -9 5 -28l-41 -23q-9 9 -17 14q-26 21 -52.5 21t-51.5 -20q-5 -3 -10.5 -8t-6.5 -6l-41 22q5 23 5 28q0 35 -23.5 62t-57.5 31
q-3 16 -3 30t3 29q35 5 58 31.5t23 62.5q0 9 -5 28l42 23q10 -9 17 -14q26 -18 52 -18q23 0 51 18q8 5 17 14l41 -23q-5 -23 -5 -28q0 -35 23.5 -62t57.5 -32q3 -15 3 -29q-3 -19 -3 -30zM110 -13v51q0 132 89.5 229t220.5 109q11 2 33 2h4q91 7 126 39l16 10q43 35 67.5 83
t24.5 103q0 98 -69.5 166.5t-168.5 68.5t-169 -69t-70 -166q0 -55 24 -103.5t68 -82.5l16 -10l-17 -7q-117 -45 -186.5 -146.5t-69.5 -225.5v-82q0 -13 9.5 -21.5t22.5 -8.5h446q-21 28 -37 61h-380zM275 614q0 72 51.5 123.5t124.5 51.5t124.5 -51.5t51.5 -123.5
t-51.5 -123t-124.5 -51q-72 -1 -124 50.5t-52 123.5z" />
    <glyph glyph-name="arrow-right" unicode="&#xe7b7;" 
d="M741 450l-428 428q-18 18 -42 18t-42 -18t-18 -42t18 -42l385 -386l-385 -385q-18 -18 -18 -42.5t18 -42.5t42 -18t42 18l428 428q18 18 18 42t-18 42z" />
    <glyph glyph-name="arrow-left" unicode="&#xe7b8;" 
d="M229 450l428 428q18 18 42 18t42 -18t18 -42t-18 -42l-386 -386l386 -385q18 -18 18 -42.5t-18 -42.5t-42 -18t-42 18l-428 428q-18 18 -18 42t18 42z" />
    <glyph glyph-name="more" unicode="&#xe605;" 
d="M907 117h-534l534 534v-534z" />
    <glyph glyph-name="arrow-up" unicode="&#xe8eb;" 
d="M557 667l428 -428q18 -18 18 -42t-18 -42t-42.5 -18t-42.5 18l-385 386l-386 -386q-18 -18 -42 -18t-42 18t-18 42t18 42l428 428q18 18 42 18t42 -18z" />
    <glyph glyph-name="arrow-down" unicode="&#xe8ec;" 
d="M467 101l-428 428q-18 18 -18 42t18 42t42.5 18t42.5 -18l385 -386l386 386q18 18 42 18t42 -18t18 -42t-18 -42l-428 -428q-18 -18 -42 -18t-42 18z" />
    <glyph glyph-name="v-more-circle" unicode="&#xe606;" 
d="M753 615h-483q-15 0 -25 -11.5t-10 -27.5t10 -27t25 -11h483q14 0 24 11t10 27t-10 27.5t-24 11.5zM753 231h-483q-15 0 -25 -11t-10 -27t10 -27t25 -11h483q14 0 24 11t10 27t-10 27t-24 11zM753 423h-483q-15 0 -25 -11.5t-10 -27t10 -27t25 -11.5h483q14 0 24 11.5
t10 27t-10 27t-24 11.5zM511.5 833q-91.5 0 -175 -36t-143.5 -96t-95.5 -143t-35.5 -174.5t35.5 -175t95.5 -143.5t143.5 -95.5t175 -35.5t174.5 35.5t143 95.5t96 143.5t36 175t-36 174.5t-96 143t-143 96t-174.5 36zM513.5 -17q-108.5 0 -201 53.5t-146 145.5t-53.5 201
t53.5 201.5t146 146t201 53.5t201 -53.5t146 -146t53.5 -201t-53.5 -201t-146 -146t-201 -53.5z" />
    <glyph glyph-name="move-left" unicode="&#xe8ed;" 
d="M774 -23q0 40 -28.5 68.5t-68.5 28.5t-68.5 -28.5t-28.5 -68.5t28.5 -68.5t68.5 -28.5t68.5 28.5t28.5 68.5zM569 181v0q0 41 -28 69t-68.5 28t-69 -28t-28.5 -69v0q0 -40 28.5 -68.5t69 -28.5t68.5 28.5t28 68.5zM359 390q0 40 -28.5 68.5t-68.5 28.5t-68.5 -28.5
t-28.5 -68.5t28.5 -68.5t68.5 -28.5t68.5 28.5t28.5 68.5zM575 600v0q0 40 -28.5 68.5t-68.5 28.5t-68.5 -28.5t-28.5 -68.5v0q0 -40 28.5 -68.5t68.5 -28.5t68.5 28.5t28.5 68.5zM785 791q0 40 -28.5 68.5t-68.5 28.5t-68.5 -28.5t-28.5 -68.5t28.5 -68.5t68.5 -28.5
t68.5 28.5t28.5 68.5z" />
    <glyph glyph-name="product-name" unicode="&#xe608;" 
d="M914 835q-12 -8 -51 -36.5t-49.5 -36.5t-43 -32t-43.5 -34t-37 -32.5t-38 -36.5t-32.5 -36.5t-33.5 -42t-28.5 -44.5t-29.5 -52q-31 -59 -48.5 -134t-14.5 -134q3 -54 10.5 -90t26.5 -67q25 -42 71 -65t103 -15q42 6 82 22t58 37q36 44 47 102q-4 -14 -8 -16t-15 3t-22 5
q-6 -1 -23.5 -6.5t-23.5 -6.5q-46 -8 -81.5 20t-37.5 68q-2 41 30 75t85 37q59 3 102.5 -30t48.5 -88q5 -58 -27.5 -114t-87.5 -90q-27 -19 -80 -36t-85 -19q-64 -3 -116 9t-105 51q-56 40 -81 82.5t-37 115.5q-16 98 46 221.5t151 203.5q132 117 410 266zM193 -23h-5
q-25 0 -43.5 17t-19.5 42v4q0 26 17.5 44.5t43.5 19.5q30 2 49 -16.5t20 -44.5q2 -25 -15 -45t-47 -21zM179 232h-4q-26 0 -44 17.5t-20 42.5v4q0 26 18 44.5t44 19.5q30 1 49 -17t20 -44q1 -25 -16 -45t-47 -22z" />
  </font>
</defs>
</svg>
